<?xml version="1.0" encoding="UTF-8"?>
<svg id="Layer_2" data-name="Layer 2" xmlns="http://www.w3.org/2000/svg" viewBox="0 0 358 364">
  <defs>
    <style>
      .cls-1 {
        fill: #000;
      }

      .cls-1, .cls-2, .cls-3 {
        stroke-width: 0px;
      }

      .cls-2 {
        fill: #0a5c36;
      }

      .cls-3 {
        fill: #fff;
      }
    </style>
  </defs>
  <g id="Layer_1-2" data-name="Layer 1">
    <g>
      <path class="cls-3" d="M179,343c-90.43,0-164-73.57-164-164S88.57,15,179,15s164,73.57,164,164-73.57,164-164,164Z"/>
      <path class="cls-1" d="M179,30c39.8,0,77.22,15.5,105.36,43.64,28.14,28.14,43.64,65.56,43.64,105.36s-15.5,77.22-43.64,105.36c-28.14,28.14-65.56,43.64-105.36,43.64s-77.22-15.5-105.36-43.64c-28.14-28.14-43.64-65.56-43.64-105.36s15.5-77.22,43.64-105.36c28.14-28.14,65.56-43.64,105.36-43.64M179,0C80.14,0,0,80.14,0,179s80.14,179,179,179,179-80.14,179-179S277.86,0,179,0h0Z"/>
    </g>
    <rect class="cls-3" x="164" y="132" width="30" height="232" rx="6" ry="6"/>
    <g>
      <path class="cls-3" d="M179,20.81s-61.29,59.27,0,90.26V20.81Z"/>
      <path class="cls-3" d="M179,20.81s61.29,59.27,0,90.26V20.81Z"/>
    </g>
    <g>
      <path class="cls-2" d="M179,29.74s-61.29,59.27,0,90.26V29.74Z"/>
      <path class="cls-2" d="M179,29.74s61.29,59.27,0,90.26V29.74Z"/>
    </g>
    <g>
      <g>
        <rect class="cls-2" x="173" y="125" width="12" height="232" rx="6" ry="6"/>
        <path class="cls-2" d="M295.2,161.31s-13.61,16.1-53.35,25.52c-39.3,9.31-47.69,76.12-47.69,76.12,0,0,112.92,43.72,101.04-101.63Z"/>
        <path class="cls-2" d="M274.92,91.47s-11.09,13.11-43.46,20.79-38.85,62.01-38.85,62.01c0,0,91.99,35.61,82.31-82.79Z"/>
      </g>
      <g>
        <rect class="cls-2" x="173" y="125" width="12" height="232" rx="6" ry="6"/>
        <path class="cls-2" d="M62.8,161.31s13.61,16.1,53.35,25.52c39.3,9.31,47.69,76.12,47.69,76.12,0,0-112.92,43.72-101.04-101.63Z"/>
        <path class="cls-2" d="M83.08,91.47s11.09,13.11,43.46,20.79,38.85,62.01,38.85,62.01c0,0-91.99,35.61-82.31-82.79Z"/>
      </g>
    </g>
  </g>
</svg>